<?xml version="1.0" encoding="UTF-8"?>
<svg viewBox="95 115 210 190" xmlns="http://www.w3.org/2000/svg">
  <!-- Calendar Base -->
  <rect x="100" y="120" width="200" height="180" rx="15" ry="15" fill="#ffffff" stroke="#333" stroke-width="4"/>
  
  <!-- Calendar Header -->
  <rect x="100" y="120" width="200" height="40" rx="15" ry="15" fill="#4a86e8" stroke="#333" stroke-width="4"/>
  
  <!-- Calendar Grid Lines -->
  <line x1="100" y1="160" x2="300" y2="160" stroke="#333" stroke-width="4"/>
  <line x1="166" y1="160" x2="166" y2="300" stroke="#999" stroke-width="2" stroke-dasharray="5,5"/>
  <line x1="232" y1="160" x2="232" y2="300" stroke="#999" stroke-width="2" stroke-dasharray="5,5"/>
  <line x1="100" y1="200" x2="300" y2="200" stroke="#999" stroke-width="2" stroke-dasharray="5,5"/>
  <line x1="100" y1="240" x2="300" y2="240" stroke="#999" stroke-width="2" stroke-dasharray="5,5"/>
  <line x1="100" y1="280" x2="300" y2="280" stroke="#999" stroke-width="2" stroke-dasharray="5,5"/>
  
  <!-- Task Element -->
  <rect x="176" y="207" width="46" height="25" rx="5" ry="5" fill="#77dd77" stroke="#333" stroke-width="2"/>
  
  <!-- Exam day highlight (without text) -->
  <rect x="243" y="168" width="46" height="25" rx="5" ry="5" fill="#ff6961" stroke="#333" stroke-width="2"/>
  
  <!-- Pencil illustration with tip touching the middle of the green task -->
  <g transform="translate(150, 175) rotate(405) scale(0.9)">
    <!-- Pencil body -->
    <rect x="0" y="0" width="60" height="12" rx="2" ry="2" fill="#f0c000" stroke="#333" stroke-width="1.5"/>
    
    <!-- Pencil tip -->
    <polygon points="60,0 72,6 60,12" fill="#e57373" stroke="#333" stroke-width="1.5"/>
    
    <!-- Pencil eraser -->
    <rect x="-10" y="0" width="10" height="12" rx="2" ry="2" fill="#f48fb1" stroke="#333" stroke-width="1.5"/>
    
    <!-- Pencil band -->
    <rect x="-2" y="0" width="4" height="12" fill="#5c6bc0" stroke="#333" stroke-width="0.5"/>
  </g>
</svg>